<?xml version="1.0" encoding="UTF-8" standalone="no"?>
<!-- Created with Inkscape (http://www.inkscape.org/) -->

<svg
   xmlns:dc="http://purl.org/dc/elements/1.1/"
   xmlns:cc="http://creativecommons.org/ns#"
   xmlns:rdf="http://www.w3.org/1999/02/22-rdf-syntax-ns#"
   xmlns:svg="http://www.w3.org/2000/svg"
   xmlns="http://www.w3.org/2000/svg"
   xmlns:sodipodi="http://sodipodi.sourceforge.net/DTD/sodipodi-0.dtd"
   xmlns:inkscape="http://www.inkscape.org/namespaces/inkscape"
   version="1.1"
   id="svg23477"
   xml:space="preserve"
   width="1066.6667"
   height="1066.6667"
   viewBox="0 0 1066.6667 1066.6667"
   sodipodi:docname="bullfinch-bird-publicdomainvectors.org.svg"
   inkscape:version="0.92.4 (5da689c313, 2019-01-14)"><metadata
     id="metadata23483"><rdf:RDF><cc:Work
         rdf:about=""><dc:format>image/svg+xml</dc:format><dc:type
           rdf:resource="http://purl.org/dc/dcmitype/StillImage" /><dc:title></dc:title></cc:Work></rdf:RDF></metadata><defs
     id="defs23481"><clipPath
       clipPathUnits="userSpaceOnUse"
       id="clipPath23493"><path
         d="M 0,800 H 800 V 0 H 0 Z"
         id="path23491"
         inkscape:connector-curvature="0" /></clipPath></defs><sodipodi:namedview
     pagecolor="#ffffff"
     bordercolor="#666666"
     borderopacity="1"
     objecttolerance="10"
     gridtolerance="10"
     guidetolerance="10"
     inkscape:pageopacity="0"
     inkscape:pageshadow="2"
     inkscape:window-width="797"
     inkscape:window-height="480"
     id="namedview23479"
     showgrid="false"
     inkscape:zoom="0.22124998"
     inkscape:cx="533.33337"
     inkscape:cy="533.33337"
     inkscape:window-x="0"
     inkscape:window-y="0"
     inkscape:window-maximized="0"
     inkscape:current-layer="g23485" /><g
     id="g23485"
     inkscape:groupmode="layer"
     inkscape:label="bullfinch-bird-publicdomainvectors.org"
     transform="matrix(1.3333333,0,0,-1.3333333,0,1066.6667)"><g
       id="g23487"><g
         id="g23489"
         clip-path="url(#clipPath23493)"><path
           d="M 64.817,483.239 C 213.984,371.078 349.472,274.951 483.742,156.027 496.309,137.084 472.4,113.902 452.57,128.426 324.408,246.201 190.151,354.84 47.824,451.369 c -13.459,12.753 -4.71,48.191 16.993,31.87"
           style="fill:#996633;fill-opacity:1;fill-rule:evenodd;stroke:none"
           id="path23495"
           inkscape:connector-curvature="0" /><path
           d="m 199.364,387.014 c -1.833,-8.16 -0.595,-14.608 0.788,-20.985 0.637,10.203 4.952,19.989 11.951,29.485 3.9,-5.934 7.795,-11.868 11.689,-17.795 -7.367,0.082 -17.429,-10.209 -20.057,-19.123 -8.307,-28.149 1.376,-35.895 12.891,-33.731 -11.854,3.707 -11.715,15.479 -5.948,28.369 3.41,7.629 9.088,16.834 15.023,20.073 0.898,-0.327 1.804,-0.651 2.704,-0.977 -6.135,-8.623 -17.049,-26.973 -9.393,-37.367 4.088,17.996 13.674,31.412 24.172,44.084 -7.262,11.064 -14.523,22.131 -21.786,33.197 -8.05,-3.452 -16.107,-6.91 -24.164,-10.361 0.705,-4.951 1.417,-9.91 2.13,-14.869"
           style="fill:#000000;fill-opacity:1;fill-rule:evenodd;stroke:none"
           id="path23497"
           inkscape:connector-curvature="0" /><path
           d="m 354.811,308.916 c -8.666,-7.58 -17.332,-15.152 -25.998,-22.732 -24.089,-6.62 -44.574,-13.37 -44.083,-20.715 0.353,-5.283 7.628,-6.203 16.578,-4.903 -1.902,1.563 -3.797,3.133 -5.692,4.696 6.854,5.373 17.477,8.127 28.944,10.299 -16.094,-17.028 -20.458,-28.889 -15.928,-36.651 4.627,-7.931 13.148,-4.978 21.025,-2.066 -2.372,1.998 -4.744,4.004 -7.116,6.002 -3.002,13.543 7.981,22.097 20.969,29.974 3.575,2.172 8.888,3.307 10.001,1.149 0.373,-2.227 -1.245,-4.053 -4.413,-5.567 2.027,-1.611 4.053,-3.224 6.079,-4.828 5.665,6.502 12.36,12.567 9.49,18.364 -2.359,4.763 -8.922,4.08 -18.058,1.859 7.967,9.648 15.934,19.297 23.902,28.943 -5.236,-1.271 -10.465,-2.551 -15.7,-3.824"
           style="fill:#000000;fill-opacity:1;fill-rule:evenodd;stroke:none"
           id="path23499"
           inkscape:connector-curvature="0" /><path
           d="M 778.785,290.588 C 594.602,381.467 437.666,504.202 289.682,637.213 229.408,691.387 175.745,703.85 123.909,668.723 108.983,658.611 97.543,644.979 89.653,628.99 c 6.134,-11.785 15.955,-20.873 27.408,-28.772 -7.414,-175.615 74.777,-258.56 204.131,-286.335 37.057,-7.955 80.351,-9.504 117.824,9.592 39.505,20.127 92.033,15.699 132.894,5.478 69.127,-17.283 138.51,-42.514 206.875,-75.351 z"
           style="fill:#e4e6eb;fill-opacity:1;fill-rule:evenodd;stroke:none"
           id="path23501"
           inkscape:connector-curvature="0" /><path
           d="m 289.682,637.213 c -60.274,54.174 -113.937,66.637 -165.773,31.51 -14.926,-10.112 -26.366,-23.744 -34.256,-39.733 6.134,-11.785 15.955,-20.873 27.408,-28.772 -6.867,-162.564 63.062,-245.71 176.1,-279.204 69.465,-12.748 120.499,5.691 153.144,55.273 z"
           style="fill:#ff6600;fill-opacity:1;fill-rule:evenodd;stroke:none"
           id="path23503"
           inkscape:connector-curvature="0" /><path
           d="m 297.649,630.068 -7.967,7.145 c -60.274,54.174 -113.937,66.637 -165.773,31.51 -14.926,-10.112 -26.366,-23.744 -34.256,-39.733 6.134,-11.785 15.955,-20.873 27.408,-28.772 8.141,3.88 25.051,0.865 33.509,4.012 21.544,8.016 28.888,23.632 51.518,27.623 26.634,4.689 43.614,-6.405 70.649,-6.91 6.183,-0.11 19.898,1.501 24.912,5.125"
           style="fill:#000000;fill-opacity:1;fill-rule:evenodd;stroke:none"
           id="path23505"
           inkscape:connector-curvature="0" /><path
           d="m 778.785,290.588 c -184.183,90.879 -341.119,213.614 -489.103,346.625 -2.304,2.068 -4.593,4.067 -6.875,6.017 -3.361,-6.093 -6.716,-12.187 -10.07,-18.287 9.911,-48.959 -12.373,-80.815 -47.797,-105.686 13.707,-7.863 28.563,-36.199 23.901,-63.206 7.484,-7.753 11.274,-17.215 9.559,-29.214 80.407,-27.685 161.416,-52.812 247.522,-56.304 36.123,-24.193 75.373,-41.109 115.756,-55.385 52.584,-16.025 105.14,-36.587 157.107,-61.546 z"
           style="fill:#c6cad1;fill-opacity:1;fill-rule:evenodd;stroke:none"
           id="path23507"
           inkscape:connector-curvature="0" /><path
           d="m 251.159,453.444 c 5.926,-7.248 8.769,-15.914 7.241,-26.607 18.528,-6.377 37.084,-12.622 55.73,-18.494 2.11,2.552 4.005,5.491 5.623,8.943 50.08,-15.879 72.98,20.478 55.24,45.681 -21.78,-18.211 -43.551,-20.568 -65.33,-4.779 -19.504,-16.433 -39,-25.486 -58.504,-4.744"
           style="fill:#000000;fill-opacity:1;fill-rule:evenodd;stroke:none"
           id="path23509"
           inkscape:connector-curvature="0" /><path
           d="M 778.785,290.588 C 659.061,349.66 550.857,422.196 449.135,502.258 h -0.008 c 7.082,-19.663 -2.615,-34.664 -21.031,-47.245 -1.959,-41.407 -37.272,-55.585 -93.044,-53.081 55.53,-16.516 112.007,-29.014 170.87,-31.399 36.123,-24.193 75.373,-41.109 115.756,-55.385 52.584,-16.025 105.14,-36.587 157.107,-61.546 z"
           style="fill:#000000;fill-opacity:1;fill-rule:evenodd;stroke:none"
           id="path23511"
           inkscape:connector-curvature="0" /><path
           d="m 89.653,628.99 c 6.134,-11.785 15.955,-20.873 27.408,-28.772 10.63,8.528 26.047,13.328 31.897,25.57 -19.766,1.071 -39.533,2.136 -59.305,3.202"
           style="fill:#4d4d4d;fill-opacity:1;fill-rule:evenodd;stroke:none"
           id="path23513"
           inkscape:connector-curvature="0" /><path
           d="m 118.009,664.407 c -12.076,-9.551 -21.544,-21.599 -28.356,-35.417 19.676,1.148 39.359,2.296 59.043,3.437 -7.774,13.819 -17.954,24.538 -30.687,31.98"
           style="fill:#4d4d4d;fill-opacity:1;fill-rule:evenodd;stroke:none"
           id="path23515"
           inkscape:connector-curvature="0" /><path
           d="m 97.572,624.065 c 4.703,-7.054 10.733,-13.051 18.984,-17.263 3.272,1.903 6.55,3.804 9.828,5.713 -9.786,3.043 -19.385,6.909 -28.812,11.55 m -1.335,9.559 c 7.338,8.541 15.284,16.612 25.631,22.843 3.894,-2.96 7.31,-6.335 9.96,-10.36 -11.965,-2.476 -23.799,-7.158 -35.591,-12.483"
           style="fill:#7d7d7d;fill-opacity:1;fill-rule:evenodd;stroke:none"
           id="path23517"
           inkscape:connector-curvature="0" /><path
           d="m 185.642,623.208 c 6.73,0 12.214,5.491 12.214,12.22 0,6.73 -5.484,12.215 -12.214,12.215 -6.723,0 -12.214,-5.485 -12.214,-12.215 0,-6.729 5.491,-12.22 12.214,-12.22"
           style="fill:#e6e6e6;fill-opacity:1;fill-rule:evenodd;stroke:none"
           id="path23519"
           inkscape:connector-curvature="0" /><path
           d="m 184.715,626.797 c 5.263,0 9.558,4.295 9.558,9.558 0,5.264 -4.295,9.559 -9.558,9.559 -5.27,0 -9.558,-4.295 -9.558,-9.559 0,-5.263 4.288,-9.558 9.558,-9.558"
           style="fill:#000000;fill-opacity:1;fill-rule:evenodd;stroke:none"
           id="path23521"
           inkscape:connector-curvature="0" /><path
           d="m 187.904,637.953 c 1.535,0 2.787,1.252 2.787,2.787 0,1.535 -1.252,2.787 -2.787,2.787 -1.536,0 -2.787,-1.252 -2.787,-2.787 0,-1.535 1.251,-2.787 2.787,-2.787"
           style="fill:#ffffff;fill-opacity:1;fill-rule:evenodd;stroke:none"
           id="path23523"
           inkscape:connector-curvature="0" /><path
           d="m 192.482,628.388 c 1.943,0 3.52,1.577 3.52,3.52 0,1.937 -1.577,3.52 -3.52,3.52 -1.937,0 -3.521,-1.583 -3.521,-3.52 0,-1.943 1.584,-3.52 3.521,-3.52"
           style="fill:#ffffff;fill-opacity:1;fill-rule:evenodd;stroke:none"
           id="path23525"
           inkscape:connector-curvature="0" /><path
           d="m 532.771,420.294 c 19.731,-17.352 41.268,-32.132 63.477,-45.944 -22.049,8.306 -43.551,17.713 -63.477,30.273 z"
           style="fill:#ffffff;fill-opacity:1;fill-rule:evenodd;stroke:none"
           id="path23527"
           inkscape:connector-curvature="0" /></g></g></g></svg>